<?xml version="1.0" standalone="no"?>
<!DOCTYPE svg PUBLIC "-//W3C//DTD SVG 20010904//EN"
 "http://www.w3.org/TR/2001/REC-SVG-20010904/DTD/svg10.dtd">
<svg version="1.0" xmlns="http://www.w3.org/2000/svg"
 width="256.000000pt" height="228.000000pt" viewBox="0 0 256.000000 228.000000"
 preserveAspectRatio="xMidYMid meet">

<g transform="translate(0.000000,228.000000) scale(0.100000,-0.100000)"
fill="#000000" stroke="none">
<path d="M1615 1810 l-50 -7 47 -1 c26 -1 50 3 53 8 3 6 5 9 3 8 -2 0 -25 -4
-53 -8z"/>
<path d="M773 1790 c-142 -37 -288 -129 -373 -233 -54 -66 -118 -190 -141
-272 -20 -73 -17 -255 5 -330 86 -285 324 -477 633 -511 l62 -6 3 413 c3 395
4 417 25 471 34 91 56 138 65 138 4 0 8 9 8 20 0 11 5 20 10 20 6 0 10 -6 10
-14 0 -14 21 -26 46 -26 23 0 17 38 -8 42 -12 2 -23 9 -26 16 -6 20 133 156
153 149 10 -4 15 0 15 12 0 12 10 21 25 25 34 9 24 23 -34 48 -137 60 -334 76
-478 38z"/>
<path d="M1642 1783 c14 -4 18 -19 21 -86 l3 -82 2 88 c2 84 1 87 -20 86 -17
-1 -18 -3 -6 -6z"/>
<path d="M1420 1760 c-8 -5 -10 -10 -5 -10 6 0 17 5 25 10 8 5 11 10 5 10 -5
0 -17 -5 -25 -10z"/>
<path d="M1633 1725 c-19 -21 -17 -105 2 -105 12 0 15 13 15 60 0 33 -1 60 -2
60 -2 -1 -9 -7 -15 -15z"/>
<path d="M1324 1718 c-3 -5 -3 -12 0 -15 3 -4 6 -1 6 7 0 10 3 10 15 0 12 -10
19 -10 27 -2 7 7 8 12 3 13 -6 0 -18 2 -27 4 -10 2 -21 -1 -24 -7z"/>
<path d="M1202 1633 c-6 -2 -10 -9 -6 -14 3 -5 -2 -12 -11 -15 -9 -4 -21 -18
-26 -31 -5 -13 -13 -22 -18 -18 -5 3 -12 2 -15 -3 -3 -5 17 -9 45 -9 l49 -1 0
49 c0 27 -1 49 -2 48 -2 0 -9 -3 -16 -6z"/>
<path d="M980 1190 c0 -5 5 -10 11 -10 5 0 7 5 4 10 -3 6 -8 10 -11 10 -2 0
-4 -4 -4 -10z"/>
<path d="M1662 1080 c0 -19 2 -27 5 -17 2 9 2 25 0 35 -3 9 -5 1 -5 -18z"/>
<path d="M1622 941 c1 -16 6 -27 10 -25 11 7 10 42 -2 49 -6 4 -10 -5 -8 -24z"/>
<path d="M1540 762 c0 -12 3 -12 15 -2 8 7 15 13 15 15 0 1 -7 2 -15 2 -8 0
-15 -7 -15 -15z"/>
<path d="M1506 735 c-9 -26 -7 -32 5 -12 6 10 9 21 6 23 -2 3 -7 -2 -11 -11z"/>
<path d="M1461 678 c1 -16 3 -18 6 -6 2 9 14 19 26 21 18 4 17 5 -5 6 -23 1
-28 -3 -27 -21z"/>
<path d="M1411 661 c-10 -6 -9 -10 3 -14 8 -3 18 -2 21 3 8 13 -9 20 -24 11z"/>
<path d="M1336 581 c-3 -5 0 -11 7 -14 8 -3 14 1 14 9 0 16 -13 19 -21 5z"/>
<path d="M1285 530 c-3 -5 -2 -10 4 -10 5 0 13 5 16 10 3 6 2 10 -4 10 -5 0
-13 -4 -16 -10z"/>
<path d="M1180 491 c0 -5 9 -7 20 -4 11 3 20 7 20 9 0 2 -9 4 -20 4 -11 0 -20
-4 -20 -9z"/>
<path d="M1145 480 c3 -5 10 -10 16 -10 5 0 9 5 9 10 0 6 -7 10 -16 10 -8 0
-12 -4 -9 -10z"/>
<path d="M980 452 c0 -4 16 -6 35 -4 19 2 35 6 35 8 0 2 -16 4 -35 4 -19 0
-35 -4 -35 -8z"/>
</g>
</svg>
